<?xml version="1.0" encoding="UTF-8"?>
<svg id="Layer_1" data-name="Layer 1" xmlns="http://www.w3.org/2000/svg" version="1.1" viewBox="0 0 1000 1000">
  <defs>
    <style>
      .cls-1 {
        fill: #302e2f;
      }

      .cls-1, .cls-2 {
        stroke-width: 0px;
      }

      .cls-2 {
        fill: #fff;
        opacity: .87;
      }
    </style>
  </defs>
  <rect class="cls-1" y="0" width="1000" height="1000" rx="256.04" ry="256.04"/>
  <path class="cls-2" d="M614.56,204.97c-59.95,0-114.13,3.7-162.55,11.11-48.42,7.4-88.77,18.11-121.05,32.12-32.28,14.01-59.95,29.61-83.01,46.79-23.06,17.18-40.64,36.62-52.75,58.29-12.1,21.68-20.89,42.96-26.37,63.84-5.48,20.89-8.21,43.22-8.21,67.02v23.79c0,28.02,3.46,54.33,10.37,78.91,6.92,24.59,20.61,50.09,41.07,76.53,20.46,26.44,46.84,48.91,79.12,67.41,32.28,18.51,76.09,33.84,131.42,46,55.34,12.16,119.04,18.24,191.09,18.24M839.38,653.07h-209.25c-172.35,0-258.53-50.76-258.53-152.27v-4.76c0-100.98,86.18-151.48,258.53-151.48h209.25v308.51Z"/>
</svg>