<?xml version="1.0" encoding="UTF-8"?>
<svg id="Layer_1" data-name="Layer 1" xmlns="http://www.w3.org/2000/svg" version="1.1" viewBox="0 0 1000 1000">
  <defs>
    <style>
      .cls-1 {
        fill: #231f20;
        stroke-width: 0px;
      }

      .cls-2 {
        opacity: .87;
      }
    </style>
  </defs>
  <g class="cls-2">
    <path class="cls-1" d="M307.75,442.53c12.27,0,23.37.76,33.28,2.27,9.91,1.52,18.18,3.71,24.78,6.58s12.27,6.06,17,9.58c4.72,3.52,8.32,7.5,10.8,11.93,2.48,4.44,4.28,8.8,5.4,13.07,1.12,4.28,1.68,8.85,1.68,13.72v4.87c0,5.74-.71,11.12-2.12,16.16-1.42,5.03-4.22,10.25-8.41,15.67-4.19,5.41-9.59,10.02-16.2,13.8-6.61,3.79-15.58,6.93-26.91,9.42-11.33,2.49-24.37,3.73-39.12,3.73h-105.96v-120.81h105.78ZM261.72,502.7v31.58h42.84c35.29,0,52.93-10.39,52.93-31.18v-.98"/>
    <path class="cls-1" d="M584.46,442.16v57.99c0,5.03-.62,10.12-1.85,15.26-1.23,5.14-3.66,10.68-7.3,16.63-3.63,5.94-8.27,11.16-13.9,15.66-5.63,4.5-13.4,8.25-23.3,11.25-9.91,3-21.25,4.5-34.04,4.5l-21.77.14c-9.73,0-18.62-.78-26.65-2.33-8.03-1.55-14.8-3.61-20.32-6.18-5.51-2.57-10.38-5.68-14.6-9.32-4.22-3.64-7.56-7.33-10.03-11.08-2.46-3.75-4.49-7.76-6.07-12.05s-2.64-8.19-3.17-11.73c-.53-3.54-.79-7.07-.79-10.6v-57.99l48.79-.14v55.75c0,4.28.62,8.27,1.85,11.97,1.23,3.69,3.31,7.33,6.24,10.93,2.93,3.58,7.42,6.42,13.46,8.51,6.04,2.09,13.28,3.13,21.72,3.13s15.45-1.05,21.37-3.13c5.92-2.09,10.38-4.93,13.37-8.51,2.99-3.59,5.1-7.23,6.33-10.93,1.23-3.7,1.84-7.68,1.84-11.97v-55.75h48.79Z"/>
    <path class="cls-1" d="M655.07,518.34h-12.51v45.11h-58.09v-121.29h58.24l-.14,40.3h14.14l51.21-39.37h47.62l-72.91,55.63,72.08,64.72h-48.91l-50.72-45.11Z"/>
    <path class="cls-1" d="M806.31,563.34l-51.61.16v-120.25l51.61-.16v120.25Z"/>
    <path class="cls-1" d="M874.82,471.49l-68.51.11v-28.51l166.71-.11v28.51h-56.69v92.01h-41.5v-92.01Z"/>
  </g>
  <g class="cls-2">
    <path class="cls-1" d="M201.32,518.21c0,3.79-.51,7.55-1.52,11.27-1.01,3.72-3.25,7.78-6.71,12.18-3.47,4.4-7.94,8.23-13.43,11.49-5.49,3.26-13.25,5.99-23.28,8.19-10.03,2.2-21.69,3.3-34.97,3.3h-12.34c-15.02,0-28.01-1.7-38.98-5.12-10.97-3.41-19.49-8.16-25.56-14.22-6.06-6.07-10.5-12.67-13.32-19.8s-4.22-14.95-4.22-23.44v-5.01c0-8.34,1.3-16,3.9-22.99,2.6-6.98,6.82-13.47,12.67-19.46,5.85-5.99,14.22-10.7,25.12-14.11,10.9-3.41,23.93-5.12,39.09-5.12h13.21c54,0,81,22,81,66.01v8.42h-127.56c3.18,15.93,16.89,23.9,41.15,23.9h.22c6.06,0,11.44-.45,16.13-1.36s8.34-2.01,10.94-3.3c2.6-1.29,4.73-2.73,6.39-4.33,1.66-1.59,2.78-2.88,3.36-3.87.58-.99.94-1.93,1.08-2.84h47.64v.23h0ZM114.26,463.81"/>
  </g>
</svg>